<?xml version="1.0"?>
<svg version="1.1" xmlns="http://www.w3.org/2000/svg" width="266" height="78" style=""><path fill="#050405" d="M15.953125,33.265625q0-1.09375,0.375-1.46875t1.046875-0.375q0.1875,0,0.3984375,0.03125t0.3984375,0.09375q1.046875-0.203125,1.984375-0.203125q1.515625,0,2.75,0.53125q1.984375,0.84375,3.28125,2.5t1.90625,3.890625t0.609375,4.578125q0,1.3125-0.1796875,2.734375t-0.6953125,2.640625q-0.453125,1.09375-1.25,2.2890625t-1.8046875,2.265625t-2.171875,1.875t-2.3515625,1.0859375l0,0.125q0,0.3125-0.1640625,0.5078125t-0.3984375,0.296875t-0.5390625,0.1328125t-0.5703125,0.03125q-0.15625,0-0.4453125-0.03125t-0.5625-0.1171875t-0.4609375-0.2265625t-0.1875-0.390625q0-2.84375-0.1484375-5.6953125t-0.3359375-5.703125t-0.3359375-5.6953125t-0.1484375-5.703125z M18.90625,32.46875q0.15625,1.5,0.203125,2.9921875t0.140625,2.9921875q0.25,3.875,0.578125,7.7109375t0.390625,7.7109375q1.5-0.984375,2.5703125-2.25t1.7578125-2.75t1.0078125-3.1171875t0.3203125-3.3671875q0-1.25-0.21875-2.75t-0.75-2.890625t-1.4296875-2.515625t-2.2421875-1.609375q-0.28125-0.09375-0.6796875-0.15625t-1.2734375-0.0625q-0.09375,0-0.1875,0.03125t-0.1875,0.03125z M31.88546875,49.8125q0-1.09375,0.2421875-2.578125t0.8203125-2.8125t1.5234375-2.2578125t2.3828125-0.9296875q1.34375,0,2.015625,0.7734375t0.671875,2.0859375q0,0.859375-0.3203125,1.8828125t-0.9140625,1.9375t-1.40625,1.5234375t-1.8125,0.609375l-0.40625-0.03125q0,0.421875,0.125,1.1328125t0.3671875,1.4140625t0.625,1.234375t0.9296875,0.53125q0.796875,0,1.53125-0.640625t1.390625-1.421875t1.21875-1.421875t1.03125-0.640625q0.25,0,0.515625,0.078125t0.296875,0.4375q0,0.21875-0.1171875,0.359375t-0.2109375,0.3125q-0.484375,0.828125-1.0546875,1.578125t-1.2890625,1.359375t-1.5703125,0.9609375t-1.8828125,0.3515625q-1.34375,0-2.234375-0.4765625t-1.4375-1.28125t-0.7890625-1.859375t-0.2421875-2.2109375z M34.68234375,48.625l0.4375,0.390625q0.3125,0.28125,0.625,0.125t0.5625-0.5703125t0.4609375-1.0234375t0.375-1.25t0.2421875-1.25t0.078125-1.015625l0-0.53125t-0.046875-0.5625t-0.1640625-0.4453125t-0.3671875-0.2265625q-0.078125-0.015625-0.140625-0.015625q-0.53125,0-0.90625,0.671875q-0.40625,0.75-0.65625,1.8203125t-0.359375,2.1953125t-0.140625,1.6875z M44.9428125,48.859375q0-1.125,0.2890625-2.2578125t0.8984375-2.03125t1.5546875-1.4609375t2.2265625-0.5625q0.546875,0,1.203125,0.1328125t1.2109375,0.421875t0.9375,0.75t0.3828125,1.1328125q0,0.421875-0.21875,0.5625t-0.578125,0.140625l-0.109375-0.15625t-0.3046875-0.3984375t-0.4140625-0.515625t-0.421875-0.4609375q-0.640625-0.640625-1.203125-0.6875l-0.125,0q-0.46875,0-0.875,0.28125q-0.453125,0.34375-0.8046875,0.96875t-0.5859375,1.328125t-0.3671875,1.421875t-0.1328125,1.1875q0,0.640625,0.1484375,1.4609375t0.5,1.5546875t0.890625,1.234375t1.3828125,0.5q0.765625,0,1.390625-0.375t1.1953125-0.8359375t1.1171875-0.828125t1.125-0.3671875q0.25,0,0.5078125,0.0625t0.2578125,0.328125l0,0.09375q-0.28125,0.734375-0.953125,1.296875t-1.5078125,0.9765625t-1.734375,0.6171875t-1.6015625,0.203125q-1.3125,0-2.3046875-0.4296875t-1.6484375-1.1796875t-0.9921875-1.8046875t-0.3359375-2.3046875z M58.26578125,49.46875q0-0.890625,0.2265625-1.8359375t0.71875-1.703125t1.2421875-1.234375t1.8125-0.4765625q0.796875,0,1.6796875,0.2734375t1.6171875,0.78125t1.1953125,1.2421875t0.4609375,1.640625q0,1.09375-0.3984375,2.078125t-1.1171875,1.7578125t-1.6796875,1.21875t-2.0859375,0.4453125q-0.921875,0-1.609375-0.3359375t-1.1484375-0.8984375t-0.6875-1.328125t-0.2265625-1.625z M60.56265625,49.4375q0,0.28125,0.0859375,0.828125t0.2578125,1.0703125t0.4453125,0.90625t0.6640625,0.3515625q0.828125-0.09375,1.3671875-0.5390625t0.875-1.0859375t0.46875-1.390625t0.1328125-1.421875q0-0.859375-0.3359375-1.4375t-1.1015625-0.9375q0,0.03125,0.03125,0.03125t0.03125-0.03125l-0.390625-0.09375q-0.15625-0.0625-0.3828125-0.140625t-0.4453125-0.34375q-0.609375,0.21875-0.9453125,0.5625t-0.5078125,0.8359375t-0.2109375,1.1796875t-0.0390625,1.65625z M70.104375,44.796875q0-0.640625,0.2265625-1.078125t0.9609375-0.4375q0.28125,0,0.703125,0.0859375t0.484375,0.4296875q0.15625,0.921875,0.171875,2t0.109375,2.03125q0.359375-0.703125,0.921875-1.515625t1.28125-1.5t1.5625-1.140625t1.71875-0.453125q0.0625,0,0.234375,0.046875t0.3203125,0.1328125t0.1796875,0.1953125t-0.171875,0.203125q-0.0625,0.1875-0.265625,0.2265625t-0.359375,0.0390625q-0.09375,0-0.296875-0.078125q-1.15625,0.609375-1.96875,1.65625t-1.328125,2.3203125t-0.75,2.6875t-0.234375,2.7578125q0,0.671875-0.3046875,0.8125t-0.9765625,0.140625q-0.359375,0-0.7578125-0.078125t-0.5546875-0.5q-0.28125-0.890625-0.4609375-2.046875t-0.2734375-2.3828125t-0.1328125-2.4140625t-0.0390625-2.140625z M81.20859375,49.171875q0-1.0625,0.2890625-2.046875t0.8671875-1.7578125t1.4453125-1.234375t2.0078125-0.4609375q0.703125,0,1.5546875,0.2109375t1.6015625,0.625t1.25,1.0546875t0.5,1.46875q0,0.390625-0.1328125,0.59375t-0.5390625,0.203125l-0.171875-0.03125q0.453125,1.21875,0.78125,2.5t0.640625,2.5625q0.125,0.25,0.1875,0.4453125t0.0625,0.3828125q0,0.25-0.140625,0.4140625t-0.3671875,0.2421875t-0.46875,0.109375t-0.4296875,0.03125q-0.671875,0-1.0078125-0.234375t-0.484375-0.640625t-0.1796875-0.9140625t-0.125-1.0234375q-0.1875,0.609375-0.4921875,1.1875t-0.71875,1.0390625t-0.9765625,0.734375t-1.265625,0.2734375q-1.03125,0-1.734375-0.59375t-1.1328125-1.4609375t-0.625-1.8515625t-0.1953125-1.828125z M83.42734375,48.953125q0,0.578125,0.078125,1.21875t0.2578125,1.265625t0.4609375,1.1796875t0.703125,0.9765625q0.765625-0.828125,1.1328125-2.015625t0.65625-2.2890625t0.65625-1.890625t1.1328125-0.7890625q0.484375,0,0.8125,0.171875q-0.15625-0.390625-0.515625-0.7578125t-0.8046875-0.671875t-0.921875-0.5t-0.8984375-0.1953125q-0.125,0-0.2890625,0.0390625t-0.2578125,0.0078125q-0.640625,0.1875-1.0546875,0.6484375t-0.671875,1.0859375t-0.3671875,1.28125t-0.109375,1.234375z M94.1096875,39.25q0-0.21875,0.46875-0.375t1.0625-0.2578125t1.1484375-0.1484375t0.7578125-0.078125q0-0.421875,0.03125-0.8515625t0.171875-0.765625t0.4453125-0.5390625t0.8515625-0.203125q0.453125,0,0.6875,0.109375t0.5,0.453125q0.0625,0.1875,0.0625,0.359375l0,0.5234375t-0.03125,0.5390625q0.578125-0.0625,1.1484375-0.1484375t1.1484375-0.0859375q0.421875,0,0.578125,0.015625t0.3125,0.375q0.125,0.359375-0.3046875,0.546875t-1.03125,0.28125t-1.1953125,0.140625t-0.71875,0.046875q-0.1875,2.6875-0.3828125,5.328125t-0.1953125,5.359375q0,1.21875,0.078125,2.515625t0.4375,2.453125q0.09375,0.359375,0.3125,0.671875t0.21875,0.671875q0,0.21875-0.171875,0.34375t-0.4140625,0.2109375t-0.484375,0.1015625t-0.3984375,0.015625q-0.984375,0-1.5-0.734375t-0.7421875-1.7578125t-0.2421875-2.1015625t-0.015625-1.75q0-1.375,0.0546875-2.8125t0.1328125-2.84375t0.21875-2.75t0.328125-2.5q-0.546875,0.0625-1.0703125,0.140625t-1.0703125,0.078125q-0.125,0-0.3359375-0.015625t-0.3984375-0.078125t-0.3203125-0.171875t-0.1328125-0.3125z M106.05765625,49.8125q0-1.09375,0.2421875-2.578125t0.8203125-2.8125t1.5234375-2.2578125t2.3828125-0.9296875q1.34375,0,2.015625,0.7734375t0.671875,2.0859375q0,0.859375-0.3203125,1.8828125t-0.9140625,1.9375t-1.40625,1.5234375t-1.8125,0.609375l-0.40625-0.03125q0,0.421875,0.125,1.1328125t0.3671875,1.4140625t0.625,1.234375t0.9296875,0.53125q0.796875,0,1.53125-0.640625t1.390625-1.421875t1.21875-1.421875t1.03125-0.640625q0.25,0,0.515625,0.078125t0.296875,0.4375q0,0.21875-0.1171875,0.359375t-0.2109375,0.3125q-0.484375,0.828125-1.0546875,1.578125t-1.2890625,1.359375t-1.5703125,0.9609375t-1.8828125,0.3515625q-1.34375,0-2.234375-0.4765625t-1.4375-1.28125t-0.7890625-1.859375t-0.2421875-2.2109375z M108.85453125,48.625l0.4375,0.390625q0.3125,0.28125,0.625,0.125t0.5625-0.5703125t0.4609375-1.0234375t0.375-1.25t0.2421875-1.25t0.078125-1.015625l0-0.53125t-0.046875-0.5625t-0.1640625-0.4453125t-0.3671875-0.2265625q-0.078125-0.015625-0.140625-0.015625q-0.53125,0-0.90625,0.671875q-0.40625,0.75-0.65625,1.8203125t-0.359375,2.1953125t-0.140625,1.6875z"/><path fill="#c5a491" d="M138.30646875,59.672q0-0.896,3.68-6.944q-2.624,0-3.488,0.224q-1.44,0.352-2.144,1.44q-0.256,0.352-0.432,0.384t-0.176-0.144t0.128-0.304q1.216-1.632,2.4-2.24t3.744-0.608l0.768,0q1.952-2.976,5.472-8.832q1.312-2.464,1.312-4q0-2.464-3.008-2.496l-0.352,0q-4.096,0-7.456,2.048t-5.312,5.088t-1.952,5.472q0,2.976,2.784,2.976q2.208,0,3.776-1.952t1.568-3.712q0-0.992-0.512-1.632q-0.064-0.064-0.064-0.16q0-0.224,0.256-0.224q0.128,0,0.192,0.096q0.64,0.832,0.64,1.984q0,1.952-1.6,3.984t-3.36,2.256q-0.544,0.096-1.056,0.096q-2.048,0-3.168-1.312q-1.088-1.184-1.088-3.2q0-0.832,0.192-1.696q0.96-4.32,5.552-7.552t10.32-3.232q2.208,0,3.792,0.944t1.584,2.64t-1.184,3.584l-5.792,8.896q1.024,0.032,3.664,0.304t3.968,0.272t1.776-0.032l1.216-2.016q3.104-5.216,7.184-9.744t7.12-5.616q0.096-0.032,0.192-0.032q0.224,0,0.224,0.256q0,0.096-0.096,0.16q-2.048,1.152-5.872,5.584t-6.608,9.104l-1.248,2.112q1.472-0.192,2.112-0.736q0.128-0.096,0.224,0.112t-0.032,0.304q-0.96,0.736-2.72,1.056q-2.24,4.16-2.24,5.856q0,1.088,0.928,1.088q0.64,0,1.488-0.432t1.136-0.736t0.352-0.304t0.032,0.208t-0.128,0.336q-0.544,0.512-1.632,1.088t-1.76,0.576t-0.992-0.224q-1.024-0.672-1.024-2.336t1.696-4.864q-1.184,0.096-2.208,0.096q-0.352,0-7.52-0.224q-2.272,3.584-3.648,6.528q-0.416,0.864-1.008,0.864t-0.592-0.48z M169.44790875,51.416q0,1.12-2.144,3.744q-2.528,3.104-4.32,3.104l-0.512,0q-0.832,0-1.312-0.864q-0.384-0.608-0.384-1.344q0-1.92,2.8-5.392t4.528-3.472q1.632,0,1.632,1.728q0,0.448-0.16,1.152q0.032,0.096,0.608,0.096t1.76-0.608q-0.032,0.544-2.528,1.568q0.032,0.128,0.032,0.288z M167.36790875,49.752q-1.088,0-3.088,2.56t-2,3.776t0.768,1.216q1.376,0,3.488-2.496t2.112-3.584q-0.512-0.288-1.28-1.472z M186.79734875,57.816q-2.176,0-2.176-2.016q0-1.152,1.024-3.152t2.144-3.376q-1.984,0.96-4.576,3.472t-3.616,5.264q-0.16,0.256-0.544,0.256q-0.768,0-0.768-0.864q0.32-1.76,1.44-4.032q0.352-0.736,2.08-4.288q-2.496,1.632-4.24,3.504t-3.232,3.76t-1.68,1.888q-0.416,0-0.72-0.384t-0.304-0.768q0-0.576,1.664-4.224l-1.92,2.016q-0.704,0.704-0.88,0.704t-0.176-0.208t0.256-0.464q1.184-1.184,2.112-2.368t3.072-4.224q0.352-0.48,0.992-0.48t0.64,0.608q0,0.224-1.696,3.12t-1.888,3.632q1.312-1.44,3.936-3.872q3.936-3.648,5.184-3.648q0.384,0,0.704,0.224t0.32,0.496t-1.248,2.416q-1.216,2.208-1.344,2.624q3.552-2.976,3.552-3.008q3.008-2.336,4.32-2.336q0.384,0,0.72,0.24t0.336,0.56q0,0.064-2.08,2.704t-2.336,4.336q-0.064,0.576,0.224,0.864t1.04,0.288t2.208-1.04t2.96-2.8q0.576-0.64,0.784-0.64t0.208,0.16q0,0.224-0.288,0.512q-1.568,1.888-3.376,3.216t-2.832,1.328z M194.73878875,58.616q-0.352,0-0.64-0.096q-2.048-0.576-2.048-2.304q0-2.24,2.816-5.184t5.056-2.944q0.736,0,1.2,0.4t0.464,0.976q0,1.792-2.704,3.424t-4.4,1.632q-0.256,0-0.448-0.064q-0.48,0.864-0.48,1.824q0,1.664,1.584,1.664t4.112-2.144q1.952-1.568,3.328-3.328q0.288-0.384,0.496-0.384t0.208,0.192t-0.256,0.544q-1.728,2.272-4.16,4.032t-4.128,1.76z M200.78678875,49.4q0-0.384-0.816-0.384t-2.32,1.248q-2.016,1.664-3.136,3.488q0.192,0.064,0.416,0.064q1.216,0,3.248-1.296t2.544-2.832q0.064-0.16,0.064-0.288z"/></svg>
